Coordinates
version=1
nRows=30
nColumns=19
inDegrees=yes

Units are S.I. units (second, meters, Newtons, ...)
If the header above contains a line with 'inDegrees', this indicates whether rotational values are in degrees (yes) or radians (no).

endheader
time	pelvis_to_ground_rx	pelvis_to_ground_ry	pelvis_to_ground_rz	pelvis_to_ground_tx	pelvis_to_ground_ty	pelvis_to_ground_tz	left_hip_abduction	left_hip_rotation	left_hip_flexion	left_knee_flexion	left_ankle_flexion	left_subtalar_angle	right_hip_abduction	right_hip_rotation	right_hip_flexion	right_knee_flexion	right_ankle_flexion	right_subtalar_angle
      2.47000000	     82.72897733	      6.36460908	     -4.23720036	      0.87604563	     -0.70882357	      0.72471895	     -6.58081111	     10.00197310	     45.52767043	    -65.29453647	      2.23681215	    -15.06821549	     11.99471070	      7.14619511	      3.77953359	    -14.25997984	      2.77781123	     -6.64938001
      2.48000000	     82.72207990	      6.10883480	     -4.22743273	      0.88487312	     -0.70841374	      0.72388858	     -6.67408739	      9.82577357	     46.38482384	    -62.64221231	      1.78332652	    -14.55731974	     12.08668069	      7.18800306	      2.91836308	    -14.13717261	      3.26192015	     -6.39312749
      2.49000000	     82.68246780	      5.86201687	     -4.19368617	      0.89395244	     -0.70797801	      0.72286906	     -6.55337924	      9.48598315	     46.97815064	    -59.82593807	      1.43824669	    -13.73551757	     12.22560002	      7.19969644	      2.04199368	    -14.07272545	      3.74038564	     -6.09539738
      2.50000000	     82.65674002	      5.54625134	     -4.12077779	      0.90332267	     -0.70746855	      0.72168224	     -6.27920952	      9.10550451	     47.27939344	    -56.87753763	      1.09813612	    -12.80735572	     12.36125804	      7.33296557	      1.13382640	    -14.11735258	      4.13205167	     -5.95039669
      2.51000000	     82.64104282	      5.17444373	     -4.01835370	      0.91303879	     -0.70688156	      0.72033707	     -5.84397692	      8.64925874	     47.29901911	    -53.87471854	      1.05237156	    -11.40706976	     12.50064555	      7.56862425	      0.21665026	    -14.30509054	      4.57072750	     -5.70403748
      2.52000000	     82.65724929	      4.77918765	     -3.74772400	      0.92314668	     -0.70621955	      0.71879461	     -5.22678146	      8.05230281	     46.88189760	    -50.88653941	      0.56787853	    -10.77136095	     12.62495129	      7.69681385	     -0.81303520	    -14.69625605	      4.82514890	     -5.76720743
      2.53000000	     82.71064832	      4.32981146	     -3.58105657	      0.93361791	     -0.70544634	      0.71715118	     -4.48863409	      7.29257993	     46.33005551	    -47.98364910	     -0.02946237	     -9.78594441	     12.70077200	      7.92111344	     -1.66354240	    -15.32784081	      5.21594324	     -5.80995279
      2.54000000	     82.79224429	      3.86241837	     -3.31087172	      0.94449701	     -0.70458556	      0.71536776	     -3.60577998	      6.35356141	     45.47154108	    -45.29531519	     -0.21061773	     -9.39787167	     12.76328767	      8.09712588	     -2.54759778	    -16.19040569	      5.34651143	     -5.82477269
      2.55000000	     82.97739917	      3.33329401	     -2.98481690	      0.95578767	     -0.70360315	      0.71351365	     -2.78312424	      5.42898734	     44.41495261	    -42.89452947	     -0.80743403	     -8.58065874	     12.71847428	      8.25362649	     -3.39991556	    -17.32889636	      5.77724961	     -5.84262334
      2.56000000	     83.24125969	      2.80939602	     -2.67106203	      0.96741521	     -0.70250367	      0.71160480	     -1.97092078	      4.31328920	     43.25214194	    -40.85977724	     -0.92399171	     -8.29641285	     12.56500304	      8.25589599	     -4.10788717	    -18.75680015	      5.90569444	     -5.82864355
      2.57000000	     83.59368518	      2.29296054	     -2.44433513	      0.97933880	     -0.70128502	      0.70973060	     -1.25220075	      3.06698393	     42.10676982	    -39.23159527	     -0.98241429	     -8.13648275	     12.29777542	      8.21157596	     -4.61846717	    -20.41975944	      5.96461324	     -5.84030544
      2.58000000	     84.08066453	      1.78958071	     -2.20638709	      0.99152997	     -0.69993524	      0.70788849	     -0.77126887	      1.83296544	     40.94018663	    -38.06437360	     -0.99404661	     -8.11256814	     11.84263628	      7.94329781	     -4.99540787	    -22.34317492	      5.98073323	     -5.85103931
      2.59000000	     84.68827094	      1.32135105	     -1.93309603	      1.00394518	     -0.69845946	      0.70612793	     -0.54146049	      0.60735198	     39.74699493	    -37.35210401	     -0.90236373	     -9.01772841	     11.21922210	      7.45733638	     -5.28498993	    -24.45429226	      5.90640180	     -5.58711705
      2.60000000	     85.43484583	      0.89257399	     -1.88447726	      1.01646325	     -0.69681370	      0.70452472	     -0.64231129	     -0.54120166	     38.82695618	    -37.06755192	     -0.82288711	     -9.16096154	     10.34570814	      6.75193253	     -5.16890484	    -26.78072318	      5.76126761	     -5.63329954
      2.61000000	     86.27958380	      0.51876996	     -1.78160314	      1.02910089	     -0.69504981	      0.70308422	     -1.02617883	     -1.58791295	     37.88165136	    -37.15110266	     -0.33620155	    -10.48304145	      9.32614503	      5.81693130	     -5.00031655	    -29.19322794	      5.02631665	     -5.45784410
      2.62000000	     87.22717967	      0.22002683	     -1.73993019	      1.04175953	     -0.69316043	      0.70183652	     -1.72542354	     -2.47421715	     37.04564033	    -37.54126492	     -0.07856195	    -11.56895116	      8.12997026	      4.63233517	     -4.63320283	    -31.70253645	      4.26681255	     -5.52656347
      2.63000000	     88.24271284	      0.00094652	     -1.71532757	      1.05439315	     -0.69117979	      0.70079059	     -2.70332831	     -3.13918210	     36.27399325	    -38.17444305	      0.32274684	    -12.40418641	      6.80818165	      3.19647753	     -4.12609779	    -34.26443635	      3.37801742	     -5.65541541
      2.64000000	     89.33027308	     -0.17265396	     -1.73320698	      1.06693651	     -0.68908653	      0.70000989	     -3.92242583	     -3.57667005	     35.54076775	    -38.89777193	      0.82549389	    -13.22468072	      5.37706300	      1.61465128	     -3.46189940	    -36.85327931	      2.22779422	     -5.90833895
      2.65000000	     90.42597777	     -0.25830948	     -1.76605842	      1.07932396	     -0.68695645	      0.69948565	     -5.28108235	     -3.81898822	     34.82248628	    -39.66014257	      1.36746732	    -13.92416434	      3.92002029	     -0.15723176	     -2.67700182	    -39.42847732	      0.88865309	     -6.33397782
      2.66000000	     91.51481101	     -0.26676213	     -1.85670571	      1.09148856	     -0.68482004	      0.69928128	     -6.70210892	     -3.93404093	     34.11602593	    -40.33356614	      1.74350921	    -14.45850471	      2.49347196	     -2.01110613	     -1.74129520	    -41.94858129	     -0.88568492	     -7.78787897
      2.67000000	     92.57558993	     -0.22591940	     -2.01735723	      1.10338378	     -0.68267544	      0.69940965	     -8.13859422	     -3.90277483	     33.42852880	    -40.86724602	      2.39422972	    -14.72863852	      1.12467272	     -3.95845890	     -0.61923095	    -44.43690210	     -2.17682170	     -8.16078371
      2.68000000	     93.58989394	     -0.13176757	     -2.07993077	      1.11501064	     -0.68056516	      0.69983775	     -9.55320335	     -3.71554241	     32.57505859	    -41.21897911	      2.97921491	    -14.90210760	     -0.14971435	     -5.93437164	      0.48471476	    -46.83565583	     -3.36604303	     -8.50536751
      2.69000000	     94.52583413	     -0.00106662	     -2.29692185	      1.12628102	     -0.67852350	      0.70066150	    -10.83889397	     -3.54316115	     31.78734000	    -41.31975458	      3.60875008	    -14.87266634	     -1.23509249	     -7.84173375	      1.85329324	    -49.12325809	     -4.73764395	     -9.29507167
      2.70000000	     95.36474697	      0.15381707	     -2.57637841	      1.13720392	     -0.67657167	      0.70183927	    -11.98059434	     -3.35310126	     30.98402543	    -41.18226157	      4.13905618	    -14.51236293	     -2.09861320	     -9.63912299	      3.38670317	    -51.27505467	     -5.96313219	    -10.46021408
      2.71000000	     96.12349337	      0.28716536	     -2.81223790	      1.14781343	     -0.67469640	      0.70331309	    -12.99240050	     -3.11087971	     30.05545778	    -40.79926176	      4.21553630	    -14.49362849	     -2.78290458	    -11.29775842	      4.98944983	    -53.30943407	     -6.08295413	    -10.58689523
      2.72000000	     96.76385637	      0.45879048	     -3.08527025	      1.15810757	     -0.67295692	      0.70511060	    -13.79164111	     -3.05669349	     29.05591630	    -40.16468280	      4.35762048	    -14.43262112	     -3.21420448	    -12.81704745	      6.71850574	    -55.15038753	     -6.27496183	    -10.72018651
      2.73000000	     97.27466623	      0.62123672	     -3.37126812	      1.16809252	     -0.67134920	      0.70714357	    -14.39600872	     -3.07957858	     28.02059419	    -39.36879590	      4.52155299	    -14.31849576	     -3.38122199	    -14.10619183	      8.55851142	    -56.80585443	     -6.46146459	    -10.86563953
      2.74000000	     97.63872497	      0.80368503	     -3.67465679	      1.17779050	     -0.66992574	      0.70935398	    -14.79270942	     -3.19948886	     26.98444135	    -38.47909066	      4.71589547	    -14.08180109	     -3.27485813	    -15.19811237	     10.49957793	    -58.25580416	     -6.61864876	    -11.05932023
      2.75000000	     97.91051613	      0.89959495	     -3.93805628	      1.18726816	     -0.66859352	      0.71172770	    -15.05583174	     -3.32088398	     25.86667348	    -37.43838645	      4.93298155	    -13.61188093	     -2.98692828	    -15.91120579	     12.47615557	    -59.50185195	     -6.62782466	    -11.29404696
      2.76000000	     98.09465082	      1.06038427	     -4.05243866	      1.19656623	     -0.66742526	      0.71412359	    -15.17713466	     -3.66354934	     24.55517495	    -36.33105170	      4.98839556	    -13.43650372	     -2.60037757	    -16.50154512	     14.32117853	    -60.53948375	     -6.54070643	    -11.35908819
